:SAMPLES-PER-SECOND 30
:FULLY-SPECIFIED
:DEGREES
253
root  13.84333363 38.88888922 -3.136755538 7.002990723 -80.10990143 -4.570007324
lowerback  13.02079964 4.125460148 -0.7427549958
upperback  5.527729988 5.078010082 -1.593909979
thorax  -1.390730023 2.439049959 -1.941499949
lowerneck  5.031449795 6.059370041 -6.37857008
upperneck  10.09090042 7.448910236 3.460469961
head  1.964059949 3.460949898 2.175019979
lclavicle  0 -9.442270133e-015 7.951389973e-016
lhumerus  18.70339966 -8.392459869 77.62020111
lradius  2.185662399e-031 -2.773395737e-031 128.2409973
lwrist  -1.412450015e-030 -0 9.049429893
lhand  -1.496451383e-031 -27.76390076 20.11240005
lfingers  90 7.125020027 -90
lthumb  89.89689403 5.08795885 91.16245106
rclavicle  0 -9.442270133e-015 7.951389973e-016
rhumerus  32.90829849 21.30820084 -79.87560272
rradius  -1.899195024e-031 2.976894741e-031 122.5370026
rwrist  7.062250077e-031 -0 -6.113550186
rhand  -7.920061211e-032 -33.2840004 9.303460121
rfingers  -90 -7.125020027 -90
rthumb  -92.93752616 -24.25625642 -97.11982154
rfemur  -16.97830009 7.006040096 17.30660057
rtibia  -0 0 57.07170105
rfoot  -0 -29.61669922 -12.32830048
rtoes  5.373923086 19.29304026 -105.8922705
lfemur  -32.81999969 11.34710026 -16.55680084
ltibia  -0 0 62.2030983
lfoot  -0 -20.28770065 13.26070023
ltoes  -4.250644065 -19.5611806 -102.515957
254
root  13.90871063 38.93644378 -3.158955687 7.692016602 -80.62220001 -5.07598877
lowerback  13.10709953 4.287720203 -0.7409129739
upperback  5.388440132 5.29253006 -1.580039978
thorax  -1.57814002 2.545969963 -1.971169949
lowerneck  5.10739994 5.951620102 -6.109260082
upperneck  9.851160049 7.336440086 3.123399973
head  1.899250031 3.413480043 2.010770082
lclavicle  0 -9.442270133e-015 7.951389973e-016
lhumerus  18.30039978 -8.684900284 77.64150238
lradius  2.193012631e-031 -2.767587332e-031 128.3930054
lwrist  -1.412450015e-030 -0 8.775219917
lhand  -1.496451383e-031 -27.76390076 20.11240005
lfingers  90 7.125020027 -90
lthumb  89.89689403 5.08795885 91.16245106
rclavicle  0 -9.442270133e-015 7.951389973e-016
rhumerus  32.61920166 21.48590088 -79.9056015
rradius  -1.915946642e-031 2.966141012e-031 122.8600006
rwrist  0 -0 -5.720349789
rhand  -7.920061211e-032 -33.2840004 9.303460121
rfingers  -90 -7.125020027 -90
rthumb  -92.93752616 -24.25625642 -97.11982154
rfemur  -17.39039993 7.193429947 17.23819923
rtibia  -0 0 56.92850113
rfoot  -0 -29.35230064 -11.7336998
rtoes  5.373923086 19.29304026 -105.8922705
lfemur  -32.29270172 10.63360023 -15.75769997
ltibia  -0 0 61.42060089
lfoot  -0 -20.13330078 11.19979954
ltoes  -4.250644065 -19.5611806 -102.515957
255
root  13.98246645 39.03088908 -3.189666628 9.228027344 -81.12680054 -6.169006348
lowerback  13.0323 4.403840065 -0.7015680075
upperback  5.219389915 5.456999779 -1.582020044
thorax  -1.706529975 2.63022995 -2.020260096
lowerneck  5.144539833 5.930339813 -5.728600025
upperneck  9.523900032 7.361430168 2.547339916
head  1.81885004 3.436029911 1.749379992
lclavicle  0 -9.442270133e-015 7.951389973e-016
lhumerus  17.8864994 -9.119970322 77.48860168
lradius  2.207521412e-031 -2.756028529e-031 128.6940002
lwrist  0 -3.531125038e-031 7.504479885
lhand  -1.496451383e-031 -27.76390076 20.11240005
lfingers  90 7.125020027 -90
lthumb  89.89689403 5.08795885 91.16245106
rclavicle  0 -9.442270133e-015 7.951389973e-016
rhumerus  32.34550095 21.79500008 -80.01399994
rradius  -1.932379608e-031 2.95546157e-031 123.1780014
rwrist  7.062250077e-031 -1.765562519e-031 -5.115479946
rhand  -7.920061211e-032 -33.2840004 9.303460121
rfingers  -90 -7.125020027 -90
rthumb  -92.93752616 -24.25625642 -97.11982154
rfemur  -18.55050087 7.075819969 17.16279984
rtibia  -0 0 57.50999832
rfoot  -0 -28.47710037 -11.08780003
rtoes  5.373923086 19.29304026 -105.8922705
lfemur  -32.03369904 9.90170002 -14.90400028
ltibia  -0 0 60.58280182
lfoot  -0 -19.27659988 9.415280342
ltoes  -4.250644065 -19.5611806 -102.515957
256
root  14.07759959 39.13644505 -3.228911077 10.57800293 -81.54260254 -6.937011719
lowerback  12.98960018 4.538179874 -0.7218840122
upperback  5.071849823 5.633669853 -1.644469976
thorax  -1.828449965 2.719480038 -2.102380037
lowerneck  5.117010117 5.877429962 -5.37033987
upperneck  9.162779808 7.337039948 2.160599947
head  1.733299971 3.438640118 1.55716002
lclavicle  0 -9.442270133e-015 7.951389973e-016
lhumerus  17.63199997 -9.598369598 77.26879883
lradius  2.221298991e-031 -2.744936216e-031 128.9810028
lwrist  -7.062250077e-031 -3.531125038e-031 6.777229786
lhand  -1.496451383e-031 -27.76390076 20.11240005
lfingers  90 7.125020027 -90
lthumb  89.89689403 5.08795885 91.16245106
rclavicle  0 -9.442270133e-015 7.951389973e-016
rhumerus  32.0442009 21.85309982 -80.11990356
rradius  -1.956147557e-031 2.939784137e-031 123.6399994
rwrist  1.059337512e-030 -0 -4.747550011
rhand  -7.920061211e-032 -33.2840004 9.303460121
rfingers  -90 -7.125020027 -90
rthumb  -92.93752616 -24.25625642 -97.11982154
rfemur  -20.32589912 6.556739807 16.96750069
rtibia  -0 0 58.64690018
rfoot  -0 -26.78009987 -10.58679962
rtoes  5.373923086 19.29304026 -105.8922705
lfemur  -31.98480034 9.201760292 -14.15439987
ltibia  -0 0 59.6908989
lfoot  -0 -17.97990036 7.849209785
ltoes  -4.250644065 -19.5611806 -102.515957
257
root  14.19384423 39.25755418 -3.282822211 10.55999756 -81.80870056 -6.289978027
lowerback  13.0454998 4.607409954 -0.9279040098
upperback  4.987170219 5.692949772 -1.769899964
thorax  -1.952250004 2.746910095 -2.136120081
lowerneck  4.917920113 5.888060093 -5.264810085
upperneck  8.818510056 7.380620003 2.115910053
head  1.659090042 3.473939896 1.523049951
lclavicle  0 -9.442270133e-015 7.951389973e-016
lhumerus  17.4557991 -9.971309662 76.95739746
lradius  2.240550874e-031 -2.729244551e-031 129.3840027
lwrist  0 -1.765562519e-031 6.243919849
lhand  -1.496451383e-031 -27.76390076 20.11240005
lfingers  90 7.125020027 -90
lthumb  89.89689403 5.08795885 91.16245106
rclavicle  0 -9.442270133e-015 7.951389973e-016
rhumerus  31.79129982 21.89640045 -80.19529724
rradius  -1.982084445e-031 2.922359541e-031 124.1470032
rwrist  7.062250077e-031 -1.765562519e-031 -4.161250114
rhand  -7.920061211e-032 -33.2840004 9.303460121
rfingers  -90 -7.125020027 -90
rthumb  -92.93752616 -24.25625642 -97.11982154
rfemur  -22.45210075 5.843560219 16.53109932
rtibia  -0 0 60.14569855
rfoot  -0 -24.46269989 -9.75658989
rtoes  5.373923086 19.29304026 -105.8922705
lfemur  -32.07600021 8.468330383 -13.66530037
ltibia  -0 0 58.72259903
lfoot  4.608906877e-032 -16.72629929 6.286419868
ltoes  -4.250644065 -19.5611806 -102.515957
258
root  14.31800061 39.40311041 -3.351666608 9.643981934 -81.81610107 -4.726989746
lowerback  13.15040016 4.580659866 -1.122009993
upperback  4.999760151 5.615660191 -2.036309958
thorax  -1.988469958 2.706020117 -2.302079916
lowerneck  4.4511199 5.880620003 -4.917379856
upperneck  8.47881031 7.42595005 2.078059912
head  1.639899969 3.519540071 1.461069942
lclavicle  0 -9.442270133e-015 7.951389973e-016
lhumerus  17.51860046 -10.25259972 76.45670319
lradius  2.262437458e-031 -2.711129061e-031 129.8450012
lwrist  -7.062250077e-031 -1.765562519e-031 6.03704977
lhand  -1.496451383e-031 -27.76390076 20.11240005
lfingers  90 7.125020027 -90
lthumb  89.89689403 5.08795885 91.16245106
rclavicle  0 -9.442270133e-015 7.951389973e-016
rhumerus  31.68980026 21.91080093 -80.32800293
rradius  -1.998324183e-031 2.911278842e-031 124.4660034
rwrist  3.531125038e-031 -3.531125038e-031 -2.800810099
rhand  -7.920061211e-032 -33.2840004 9.303460121
rfingers  -90 -7.125020027 -90
rthumb  -92.93752616 -24.25625642 -97.11982154
rfemur  -24.75460052 4.932169914 15.99440002
rtibia  -0 0 61.83409882
rfoot  -0 -21.59119987 -8.678339958
rtoes  5.373923086 19.29304026 -105.8922705
lfemur  -32.28409958 7.635509968 -13.29699993
ltibia  -0 0 57.70679855
lfoot  4.580676519e-032 -15.50809956 4.454840183
ltoes  -4.250644065 -19.5611806 -102.515957
259
root  14.4471116 39.56733463 -3.436466653 6.869018555 -81.65509796 -1.413024902
lowerback  13.47280025 4.532529831 -1.637940049
upperback  5.080550194 5.453889847 -2.330349922
thorax  -2.09980011 2.616529942 -2.321630001
lowerneck  3.875159979 5.817430019 -4.391729832
upperneck  8.167360306 7.409150124 1.940119982
head  1.660820007 3.536880016 1.343840003
lclavicle  0 -9.442270133e-015 7.951389973e-016
lhumerus  17.6359005 -10.55819988 76.02069855
lradius  2.282108656e-031 -2.694591642e-031 130.2619934
lwrist  -7.062250077e-031 -1.765562519e-031 5.949590206
lhand  -1.496451383e-031 -27.76390076 20.11240005
lfingers  90 7.125020027 -90
lthumb  89.89689403 5.08795885 91.16245106
rclavicle  0 -9.442270133e-015 7.951389973e-016
rhumerus  31.64769936 22.02799988 -80.33730316
rradius  -2.005837341e-031 2.906107465e-031 124.6139984
rwrist  1.059337512e-030 -0 -0.5633739829
rhand  -7.920061211e-032 -33.2840004 9.303460121
rfingers  -90 -7.125020027 -90
rthumb  -92.93752616 -24.25625642 -97.11982154
rfemur  -27.03160095 3.837579966 15.20860004
rtibia  -0 0 63.55979919
rfoot  -0 -18.29870033 -7.582330227
rtoes  5.373923086 19.29304026 -105.8922705
lfemur  -32.42900085 6.897809982 -13.20020008
ltibia  -0 0 56.59960175
lfoot  6.826370423e-032 -14.09469986 2.374389887
ltoes  -4.250644065 -19.5611806 -102.515957
260
root  14.57346668 39.73911015 -3.545422066 3.638000488 -81.22949982 2.231994629
lowerback  14.05490017 4.460380077 -2.545530081
upperback  5.135069847 5.200540066 -2.381020069
thorax  -2.435960054 2.475600004 -1.878859997
lowerneck  3.391279936 5.811789989 -4.255189896
upperneck  7.889160156 7.443399906 1.901829958
head  1.658779979 3.567589998 1.319849968
lclavicle  0 -9.442270133e-015 7.951389973e-016
lhumerus  17.57049942 -10.49540043 76.04239655
lradius  2.298713617e-031 -2.680440215e-031 130.6159973
lwrist  -1.412450015e-030 -1.765562519e-031 6.901329994
lhand  -1.496451383e-031 -27.76390076 20.11240005
lfingers  90 7.125020027 -90
lthumb  89.89689403 5.08795885 91.16245106
rclavicle  0 -9.442270133e-015 7.951389973e-016
rhumerus  31.51000023 22.24489975 -80.10500336
rradius  -2.01672844e-031 2.898560062e-031 124.8290024
rwrist  0 -3.531125038e-031 1.166460037
rhand  -7.920061211e-032 -33.2840004 9.303460121
rfingers  -90 -7.125020027 -90
rthumb  -92.93752616 -24.25625642 -97.11982154
rfemur  -29.15699959 2.652090073 14.40839958
rtibia  -0 0 65.15450287
rfoot  -9.131700403e-032 -14.82279968 -6.810560226
rtoes  5.373923086 19.29304026 -105.8922705
lfemur  -32.48059845 6.359300137 -13.21030045
ltibia  -0 0 55.3512001
lfoot  4.518834911e-032 -12.37129974 0.272664994
ltoes  -4.250644065 -19.5611806 -102.515957
261
root  14.68771086 39.91422278 -3.665155501 0.9630126953 -80.53500366 5.239990234
lowerback  14.3277998 4.236100197 -3.080250025
upperback  5.49751997 4.794099808 -2.650929928
thorax  -2.224220037 2.258470058 -1.802099943
lowerneck  2.684319973 5.821259975 -3.952709913
upperneck  7.419250011 7.50703001 1.999930024
head  1.633399963 3.624830008 1.314610004
lclavicle  0 -9.442270133e-015 7.951389973e-016
lhumerus  17.99600029 -10.73939991 75.44650269
lradius  2.307263014e-031 -2.673084627e-031 130.798996
lwrist  0 -3.531125038e-031 6.479869843
lhand  -1.496451383e-031 -27.76390076 20.11240005
lfingers  90 7.125020027 -90
lthumb  89.89689403 5.08795885 91.16245106
rclavicle  0 -9.442270133e-015 7.951389973e-016
rhumerus  31.87330055 22.08090019 -80.13619995
rradius  -2.031171601e-031 2.888457368e-031 125.1149979
rwrist  3.531125038e-031 -0 1.416739941
rhand  -7.920061211e-032 -33.2840004 9.303460121
rfingers  -90 -7.125020027 -90
rthumb  -92.93752616 -24.25625642 -97.11982154
rfemur  -31.0692997 1.448799968 13.65250015
rtibia  -0 0 66.48940277
rfoot  -4.500240846e-032 -11.24110031 -5.880859852
rtoes  5.373923086 19.29304026 -105.8922705
lfemur  -32.42350006 5.878089905 -13.23139954
ltibia  -0 0 53.94139862
lfoot  6.735840985e-032 -10.60169983 -1.785249949
ltoes  -4.250644065 -19.5611806 -102.515957
